<?xml version="1.0" encoding="UTF-8" standalone="no"?>
<!-- Created with Inkscape (http://www.inkscape.org/) -->

<svg
   width="42.61541mm"
   height="35.603706mm"
   viewBox="0 0 42.61541 35.603706"
   version="1.1"
   id="svg1"
   inkscape:version="1.3.2 (091e20e, 2023-11-25, custom)"
   sodipodi:docname="logoVariants.svg"
   xmlns:inkscape="http://www.inkscape.org/namespaces/inkscape"
   xmlns:sodipodi="http://sodipodi.sourceforge.net/DTD/sodipodi-0.dtd"
   xmlns="http://www.w3.org/2000/svg"
   xmlns:svg="http://www.w3.org/2000/svg">
  <sodipodi:namedview
     id="namedview1"
     pagecolor="#ffffff"
     bordercolor="#000000"
     borderopacity="0.25"
     inkscape:showpageshadow="2"
     inkscape:pageopacity="0.0"
     inkscape:pagecheckerboard="0"
     inkscape:deskcolor="#d1d1d1"
     inkscape:document-units="mm"
     inkscape:zoom="0.4113431"
     inkscape:cx="367.09015"
     inkscape:cy="630.86022"
     inkscape:window-width="1600"
     inkscape:window-height="829"
     inkscape:window-x="-8"
     inkscape:window-y="-8"
     inkscape:window-maximized="1"
     inkscape:current-layer="layer2"
     showgrid="false" />
  <defs
     id="defs1">
    <rect
       x="22.203903"
       y="1028.6299"
       width="188.95976"
       height="108.75382"
       id="rect72-7-7-6-2" />
  </defs>
  <g
     inkscape:groupmode="layer"
     id="layer2"
     inkscape:label="Layer 2"
     transform="translate(-27.050837,-245.70771)">
    <g
       id="g78-5-7-4"
       transform="translate(-102.86801,27.213047)">
      <g
         id="g74-3-1-8"
         inkscape:label="logo green"
         inkscape:export-filename="..\img\logo_green.svg"
         inkscape:export-xdpi="96"
         inkscape:export-ydpi="96">
        <path
           style="fill:none;fill-opacity:1;stroke:#dff7d9;stroke-width:1;stroke-opacity:1"
           d="m 167.95492,220.49423 -7.46043,10.68198"
           id="path49-5-9-6-7-2-6" />
        <path
           id="rect49-7-7-2-4-5-7"
           style="fill:#dff7d9;fill-opacity:1;stroke:#dff7d9;stroke-opacity:1"
           transform="rotate(-46.814818)"
           d="m -67.249985,256.54495 h 2.204216 v 10.34286 h -2.204216 z m -8.666588,-0.25758 10.659051,0.28504" />
        <path
           id="text34-7-4-5-7-6-7-5-3"
           style="font-weight:bold;font-size:22.5778px;font-family:'Times New Roman';-inkscape-font-specification:'Times New Roman,  Bold';text-align:end;text-anchor:end;fill:#dff7d9;fill-opacity:1"
           d="m 164.14554,218.49467 c -1.98831,0.0292 -3.68268,0.72758 -5.08135,2.0991 -1.50665,1.47726 -2.25981,3.32584 -2.25981,5.5454 0,1.97702 0.58081,3.68579 1.74201,5.1263 1.34914,1.67294 3.21348,2.57613 5.59036,2.71353 v 5.2e-4 c 0.001,-9e-5 0.003,-4.4e-4 0.004,-5.2e-4 0.002,9e-5 0.003,4.3e-4 0.005,5.2e-4 v -5.2e-4 c 2.37706,-0.14133 4.24336,-1.08869 5.595,-2.84582 1.10978,-1.44051 1.6645,-3.1092 1.6645,-5.00538 0,-2.21956 -0.74616,-4.06763 -2.2381,-5.54488 -1.31939,-1.31285 -2.9939,-2.00559 -5.0214,-2.08205 z m -27.59574,0.11318 -5.50147,2.51354 0.19844,0.39687 c 0.53651,-0.23519 0.99254,-0.35295 1.36736,-0.35295 0.23519,0 0.44062,0.0626 0.61701,0.18759 0.18374,0.11759 0.30903,0.26441 0.37518,0.4408 0.0662,0.16904 0.0992,0.59898 0.0992,1.28984 v 7.75043 c 0,0.94074 -0.0481,1.53955 -0.14366,1.79679 -0.0955,0.25723 -0.27894,0.45969 -0.55087,0.60668 -0.27193,0.14699 -0.72795,0.22014 -1.36736,0.22014 h -0.39687 v 0.40825 h 7.87135 v -0.40825 h -0.34158 c -0.56591,0 -0.97732,-0.0807 -1.23455,-0.24236 -0.25723,-0.16169 -0.42662,-0.36764 -0.50746,-0.61753 -0.0808,-0.25723 -0.12092,-0.84503 -0.12092,-1.76372 v -12.22612 z m 14.59188,0 -5.50147,2.51354 0.19843,0.39687 c 0.53651,-0.23519 0.99254,-0.35295 1.36736,-0.35295 0.23519,0 0.44063,0.0626 0.61702,0.18759 0.18374,0.11759 0.30902,0.26441 0.37517,0.4408 0.0661,0.16904 0.0992,0.59898 0.0992,1.28984 v 7.75043 c 0,0.94074 -0.0481,1.53955 -0.14366,1.79679 -0.0955,0.25723 -0.27894,0.45969 -0.55087,0.60668 -0.27193,0.14699 -0.72795,0.22014 -1.36736,0.22014 h -0.39688 v 0.40825 H 153.71 v -0.40825 h -0.34158 c -0.56591,0 -0.97732,-0.0807 -1.23455,-0.24236 -0.25723,-0.16169 -0.42663,-0.36764 -0.50747,-0.61753 -0.0808,-0.25723 -0.12092,-0.84503 -0.12092,-1.76372 v -12.22612 z m 13.00076,0.65319 c 0.48305,0.0847 0.92383,0.26661 1.32033,0.54983 0.57327,0.40423 1.0438,1.09876 1.41128,2.0836 0.36747,0.97748 0.55139,2.45474 0.55139,4.43177 0,1.66099 -0.18041,3.00998 -0.54054,4.04626 -0.36013,1.02894 -0.86322,1.77859 -1.50998,2.24896 -0.35191,0.25501 -0.76582,0.41918 -1.23817,0.49713 v 0.002 c -0.83164,-0.1319 -1.50259,-0.53758 -2.00763,-1.22679 -0.89664,-1.22003 -1.34514,-3.10521 -1.34514,-5.65547 0,-2.14606 0.29065,-3.79271 0.87127,-4.93924 0.59844,-1.17222 1.42784,-1.84997 2.48719,-2.03811 z" />
        <text
           xml:space="preserve"
           transform="matrix(0.2254939,0,0,0.2254939,124.91805,7.2591423)"
           id="text72-96-4-7-6"
           style="font-style:normal;font-variant:normal;font-weight:bold;font-stretch:normal;font-size:26.6667px;line-height:0.9;font-family:Garamond;-inkscape-font-specification:'Garamond Bold';font-variation-settings:normal;text-align:end;text-decoration-color:#000000;white-space:pre;shape-inside:url(#rect72-7-7-6-2);shape-padding:0;display:inline;fill:#dff7d9;fill-opacity:1;stroke:none;stroke-width:5.66929;stroke-linecap:butt;stroke-linejoin:miter;stroke-miterlimit:4;stroke-dasharray:none;stroke-dashoffset:0;stroke-opacity:1"
           x="0"
           y="0"><tspan
             x="22.203125"
             y="1046.3087"
             id="tspan2"><tspan
               dx="0 0 0.44490671 0 0.44490862 0 0.44491243 0 0.44491243 0 0.44491243 0 0.44491243 0 0.44491243"
               style="text-align:justify"
               id="tspan1">W E A T H E R  </tspan></tspan><tspan
             x="22.203125"
             y="1070.3087"
             id="tspan4"><tspan
               style="text-align:justify"
               id="tspan3">H     E     A     D  
</tspan></tspan><tspan
             x="22.203125"
             y="1094.3087"
             id="tspan6"><tspan
               style="text-align:justify"
               id="tspan5">O  N  L  I  N  E</tspan></tspan></text>
      </g>
    </g>
  </g>
</svg>
