<?xml version="1.0" encoding="UTF-8" standalone="no"?>
<!-- Created with Inkscape (http://www.inkscape.org/) -->

<svg
   width="119.46088mm"
   height="15.485163mm"
   viewBox="0 0 119.46088 15.485163"
   version="1.1"
   id="svg1"
   xmlns="http://www.w3.org/2000/svg"
   xmlns:svg="http://www.w3.org/2000/svg">
  <defs
     id="defs1">
    <rect
       x="22.203903"
       y="1028.6299"
       width="206.7878"
       height="53.130348"
       id="rect72-3-5-2" />
  </defs>
  <g
     id="layer2"
     transform="translate(214.81322,-46.342589)">
    <g
       id="g2"
       transform="translate(-177.2184,-175.83026)">
      <path
         id="rect49-7-7-0-3-8"
         style="fill:#0058a1;fill-opacity:1;stroke:#0058a1;stroke-opacity:1"
         d="m -27.607446,228.28228 1.50847,-1.60719 7.541451,7.07822 -1.50847,1.60719 z m -6.118876,6.14292 7.502448,-7.57693" />
      <path
         style="fill:#0058a1;fill-opacity:1;stroke:#0058a1;stroke-width:2;stroke-dasharray:none;stroke-opacity:1"
         d="M -0.68806582,224.17273 -8.1484958,234.85471"
         id="path49-5-9-3-3-6" />
      <g
         id="g75-0-1-7"
         transform="translate(-57.400113,3.6784953)">
        <path
           id="text34-7-8-8-4-1-2-0-4"
           style="font-weight:bold;font-size:22.5778px;font-family:'Times New Roman';-inkscape-font-specification:'Times New Roman,  Bold';text-align:end;text-anchor:end;fill:#048cff;fill-opacity:1"
           d="m 52.893767,218.50035 v 0.75964 c 0.4853,0.0843 0.92794,0.26653 1.32601,0.55087 0.57327,0.40423 1.04381,1.09876 1.41129,2.0836 0.36747,0.97748 0.55138,2.45474 0.55138,4.43177 0,1.66099 -0.1804,3.00998 -0.54053,4.04626 -0.36013,1.02894 -0.86323,1.77859 -1.50999,2.24896 -0.35191,0.25501 -0.76581,0.41918 -1.23816,0.49713 v 0.86093 c 2.38131,-0.13949 4.25046,-1.08702 5.60379,-2.84634 1.10978,-1.44051 1.6645,-3.1092 1.6645,-5.00538 0,-2.21956 -0.74615,-4.06763 -2.23811,-5.54488 -1.32131,-1.31477 -2.99867,-2.0078 -5.03018,-2.08256 z m 0.0087,-0.006 c -1.98831,0.0292 -3.68267,0.72758 -5.08134,2.0991 -1.50665,1.47726 -2.25981,3.32584 -2.25981,5.5454 0,1.97702 0.58079,3.68579 1.74201,5.1263 1.35082,1.67502 3.21802,2.57839 5.59914,2.71405 v -0.85732 c -0.83578,-0.13041 -1.50956,-0.53665 -2.01641,-1.22834 -0.89664,-1.22003 -1.34514,-3.10519 -1.34514,-5.65547 0,-2.14606 0.29065,-3.79271 0.87127,-4.93924 0.59903,-1.17337 1.42944,-1.85125 2.49028,-2.03863 z m -13.00386,0.11344 -5.50147,2.51354 0.19844,0.39688 c 0.53651,-0.23519 0.99253,-0.35295 1.36735,-0.35295 0.23519,0 0.44063,0.0626 0.61702,0.18758 0.18374,0.11759 0.30902,0.26441 0.37517,0.4408 0.0661,0.16904 0.0992,0.59899 0.0992,1.28985 v 7.75043 c 0,0.94074 -0.0481,1.53955 -0.14366,1.79679 -0.0955,0.25723 -0.27894,0.45969 -0.55087,0.60668 -0.27193,0.14699 -0.72795,0.22014 -1.36736,0.22014 h -0.39687 v 0.40824 h 7.87135 v -0.40824 h -0.34158 c -0.56591,0 -0.97732,-0.0807 -1.23455,-0.24236 -0.25723,-0.16169 -0.42662,-0.36765 -0.50746,-0.61754 -0.0808,-0.25723 -0.12092,-0.84502 -0.12092,-1.76371 V 218.6081 Z m -14.59184,0 -5.50147,2.51354 0.19844,0.39688 c 0.53651,-0.23519 0.99253,-0.35295 1.36735,-0.35295 0.23519,0 0.44063,0.0626 0.61702,0.18758 0.18374,0.11759 0.30902,0.26441 0.37517,0.4408 0.0662,0.16904 0.0992,0.59899 0.0992,1.28985 v 7.75043 c 0,0.94074 -0.0481,1.53955 -0.14366,1.79679 -0.0955,0.25723 -0.27894,0.45969 -0.55087,0.60668 -0.27193,0.14699 -0.72795,0.22014 -1.36736,0.22014 h -0.39687 v 0.40824 h 7.87135 v -0.40824 h -0.34158 c -0.56591,0 -0.97732,-0.0807 -1.23455,-0.24236 -0.25723,-0.16169 -0.42662,-0.36765 -0.50746,-0.61754 -0.0808,-0.25723 -0.12093,-0.84502 -0.12093,-1.76371 V 218.6081 Z" />
      </g>
    </g>
    <text
       xml:space="preserve"
       transform="matrix(0.38275738,0,0,0.38275738,-183.01949,-347.17567)"
       id="text72-3-9-4"
       style="font-style:normal;font-variant:normal;font-weight:bold;font-stretch:normal;font-size:25.0315px;line-height:0.9;font-family:Garamond;-inkscape-font-specification:'Garamond Bold';font-variation-settings:normal;text-align:end;text-decoration-color:#000000;white-space:pre;shape-inside:url(#rect72-3-5-2);shape-padding:0;display:inline;fill:#007feb;fill-opacity:1;stroke:none;stroke-width:5.66929;stroke-linecap:butt;stroke-linejoin:miter;stroke-miterlimit:4;stroke-dasharray:none;stroke-dashoffset:0;stroke-opacity:1"
       x="-92.936317"
       y="0"><tspan
         x="35.890282"
         y="1045.2246"
         id="tspan3"><tspan
           style="letter-spacing:-1.17335px"
           id="tspan1">WEATHERHEAD</tspan><tspan
           dx="-1.1733513"
           style="text-align:center;text-anchor:middle"
           id="tspan2">
</tspan></tspan><tspan
         x="38.32255"
         y="1067.7529"
         id="tspan5"><tspan
           style="letter-spacing:17.0136px"
           id="tspan4">ONLINE</tspan></tspan></text>
  </g>
</svg>
