<svg viewBox="0 0 100 11.729" xmlns="http://www.w3.org/2000/svg"><defs><path id="a" d="M22.204 1028.63h206.788v53.13H22.204z"/></defs><text xml:space="preserve" transform="translate(22.075 -349.101) scale(.34022)" class="logo-main-color" style="font-weight:700;font-size:25.0315px;line-height:.7;font-family:Garamond;white-space:pre;shape-inside:url(#a);shape-padding:0;display:inline" x="-92.936"><tspan x="35.89" y="1042.722"><tspan style="letter-spacing:-1.17335px">WEATHERHEAD</tspan><tspan dx="-1.173" style="text-align:center;text-anchor:middle">
</tspan></tspan><tspan x="38.323" y="1060.244"><tspan style="letter-spacing:17.0136px">ONLINE</tspan></tspan></text><path class="logo-accent-color" d="m7.345 4.775 1.11-1.182L14 8.798l-1.109 1.183zm-4.5 4.518L8.363 3.72"/><path style="stroke-width:2" d="m-.688 224.173-7.46 10.682" class="logo-accent-color" transform="matrix(.73548 0 0 .73548 27.65 -163.121)"/><path style="font-weight:700;font-size:22.5778px;font-family:'Times New Roman';-inkscape-font-specification:'Times New Roman, Bold';text-align:end;text-anchor:end" d="M52.894 218.5v.76a3.19 3.19 0 0 1 1.326.55c.573.405 1.044 1.1 1.411 2.084.368.978.551 2.455.551 4.432 0 1.661-.18 3.01-.54 4.046-.36 1.03-.863 1.78-1.51 2.25-.352.254-.766.419-1.238.497v.86c2.381-.139 4.25-1.087 5.604-2.846 1.11-1.44 1.664-3.109 1.664-5.005 0-2.22-.746-4.068-2.238-5.545-1.321-1.315-2.999-2.008-5.03-2.083zm.008-.006c-1.988.03-3.682.728-5.08 2.1-1.508 1.477-2.26 3.325-2.26 5.545 0 1.977.58 3.686 1.741 5.126 1.351 1.675 3.218 2.579 5.6 2.714v-.857a2.979 2.979 0 0 1-2.017-1.228c-.897-1.22-1.345-3.106-1.345-5.656 0-2.146.29-3.793.871-4.94.6-1.173 1.43-1.85 2.49-2.038zm-13.003.114-5.502 2.513.199.397c.536-.235.992-.353 1.367-.353.235 0 .44.063.617.188a.897.897 0 0 1 .375.44c.066.17.1.6.1 1.29v7.75c0 .942-.049 1.54-.144 1.798a1.13 1.13 0 0 1-.551.606c-.272.147-.728.22-1.368.22h-.396v.409h7.87v-.408h-.34c-.567 0-.978-.081-1.235-.243-.257-.162-.427-.367-.508-.617-.08-.258-.12-.845-.12-1.764v-12.226zm-14.592 0-5.502 2.513.199.397c.536-.235.992-.353 1.367-.353.235 0 .44.063.617.188a.897.897 0 0 1 .375.44c.066.17.1.6.1 1.29v7.75c0 .942-.049 1.54-.144 1.798a1.13 1.13 0 0 1-.551.606c-.272.147-.728.22-1.367.22h-.397v.409h7.871v-.408h-.342c-.565 0-.977-.081-1.234-.243-.257-.162-.427-.367-.508-.617-.08-.258-.12-.845-.12-1.764v-12.226z" transform="matrix(.73548 0 0 .73548 -14.566 -160.416)" class="logo-main-color"/></svg>