<?xml version="1.0" encoding="UTF-8" standalone="no"?>
<!-- Created with Inkscape (http://www.inkscape.org/) -->

<svg viewBox="0 0 19.5 19.5">
   <g transform="matrix(01,0,0,1,71.3,-102.8) translate(2 -4)" style="display:inline">
      <path style="fill:none;stroke-width:1;stroke-linecap:butt" d="m -53.5,116.8 c -1.4,-0.1 -2.8,-0.1 -4.3,-0.1 -6.4,0 -12.4,0.7 -16.2,1.8 m 0,4.9 c 3.7,1.1 9.7,1.8 16.2,1.8 1.4,0 2.9,0 4.3,-0.1" />
      <path style="display:inline;fill:none;stroke-width:1;stroke-linecap:butt" d="m -53.5,118.3 c -1.4,-0.1 -2.9,-0.2 -4.3,-0.2 -7.2,0 -13,1.2 -13,2.7 0,1.5 5.8,2.7 13,2.7 1.5,0 2.9,0.1 4.3,-0.2" />
      <path style="display:inline;fill:none;stroke-width:1;stroke-linecap:butt" d="m -53.5,120 c -1.1,-0.3 -2.7,-0.4 -4.3,-0.4 -3.2,0 -5.9,0.6 -5.9,1.2 0,0.7 2.6,1.2 5.9,1.2 1.6,0 3.2,-0.1 4.3,-0.4" />
   </g>
   <g transform="matrix(1,0,0,1,71.8,-103.8) translate(2 -3)" style="display:inline">
      <path style="display:inline;fill:none;stroke-width:0.5;stroke-linecap:butt" d="m -74,114.8 c 1.3,0.1 2.8,0.2 4.3,0.2 5.1,0 9.3,-0.9 9.3,-2 0,-1.1 -4.1,-2 -9.3,-2 -1.5,0 -3,0.1 -4.3,0.2" />
      <path style="display:inline;fill:none;stroke-width:0.5;stroke-linecap:butt" d="m -74,114 c 1.1,0.2 2.7,0.4 4.3,0.4 3.4,0 6.1,-0.6 6.1,-1.3 0,-0.7 -2.7,-1.3 -6.1,-1.3 -1.6,0 -3.2,0.1 -4.3,0.4" />
      <ellipse style="display:inline;fill:none;stroke-width:0.5" cx="-69.7" cy="113" rx="2.7" ry="0.6" />
   </g>
</svg>

