<?xml version="1.0" encoding="UTF-8" standalone="no"?>
<!-- Created with Inkscape (http://www.inkscape.org/) -->

<svg viewBox="0 0 20 20">
    <g transform="translate(-65.7,-91.7)">
      <path style="display:inline;fill:none;stroke-width:0.6;stroke-linecap:butt;stroke-linejoin:miter;stroke-miterlimit:4" d="m 65.9,100.4 c 5.3,0 5.7,0 5.7,-5.7 0,5.6 0,5.6 5.7,5.7 -5.7,0 -5.6,0 -5.7,5.7 0,-5.7 0,-5.8 -5.7,-5.7 z m 2.7,-3 c 1,1 1.7,1.8 2,2.4 0,0 0.2,-0.2 0.3,-0.3 -0.6,-0.3 -1.3,-1 -2.3,-2 z m 6,0 c -1.1,1 -1.8,1.8 -2.4,2 0,0.1 0.2,0.2 0.3,0.3 0.3,-0.6 1,-1.3 2.1,-2.4 z m -4,3.5 c -0.2,0.6 -0.9,1.4 -2,2.5 1.1,-1.1 1.9,-1.9 2.5,-2.1 -0.1,-0.2 -0.2,-0.3 -0.4,-0.4 z m 1.9,0 c -0.1,0 -0.2,0.2 -0.3,0.4 0.6,0.3 1.3,1 2.4,2.1 -1.1,-1.2 -1.8,-1.9 -2.1,-2.5 z" />
      <path style="display:inline;fill:none;stroke-width:0.6;stroke-linecap:butt;stroke-linejoin:miter;stroke-miterlimit:4" d="m 78.4,96.9 c 3.4,0 3.6,0 3.6,-3.6 0,3.6 0,3.6 3.6,3.7 -3.6,0 -3.6,0 -3.7,3.6 0,-3.6 0,-3.7 -3.6,-3.7 z" />
      <path style="display:inline;fill:none;stroke-width:0.6;stroke-linecap:butt;stroke-linejoin:miter;stroke-miterlimit:4" d="m 74.1,105.7 c 5.4,0 5.7,0 5.7,-5.8 0,5.7 0,5.7 5.8,5.8 -5.8,0 -5.7,0 -5.8,5.8 0,-5.8 0,-5.8 -5.7,-5.8 z" />
    </g>
</svg>
