<?xml version="1.0" encoding="UTF-8" standalone="no"?>
<!-- Created with Inkscape (http://www.inkscape.org/) -->

<svg viewBox="0 0 20 20" >
   <g transform="matrix(1,0,0,1,-25.3,-54.4) translate(1,2)">
      <path style="fill:none;stroke-width:0.6;stroke-linecap:round;stroke-linejoin:round" d="m 29.1,70.3 5.9,-3.2" />
      <path style="fill:none;stroke-width:0.6;stroke-linecap:round;stroke-linejoin:round" d="m 29.1,70.4 0.6,-6.6" />
      <path style="fill:none;stroke-width:0.6;stroke-linecap:round;stroke-linejoin:round" d="m 31,55.3 -4.8,8.2" />
      <path style="fill:none;stroke-width:0.6;stroke-linecap:round;stroke-linejoin:round" d="m 41.9,61.7 -4.7,8.1" />
      <path style="fill:none;stroke-width:0.6;stroke-linecap:round;stroke-linejoin:round" d="m 33.1,58.1 -4.9,8.1" />
      <path style="fill:none;stroke-width:0.6;stroke-linecap:round;stroke-linejoin:round" d="m 38.4,61.3 -4.8,8" />
      <path style="fill:none;stroke-width:0.6;stroke-linecap:round;stroke-linejoin:round" d="m 38.6,54.3 -7.5,1" />
      <path style="fill:none;stroke-width:0.6;stroke-linecap:round;stroke-linejoin:round" d="m 38.5,54.3 -4,1.4" />
      <path style="fill:none;stroke-width:0.6;stroke-linecap:round;stroke-linejoin:round" d="m 38.6,54.4 1.2,4.5" />
      <path style="fill:none;stroke-width:0.6;stroke-linecap:round;stroke-linejoin:round" d="m 38.6,54.3 3.3,7.3" />
      <path style="fill:none;stroke-width:0.6;stroke-linecap:round;stroke-linejoin:round" d="m 38.7,54.4 -5.5,3.5" />
      <path style="fill:none;stroke-width:0.6;stroke-linecap:round;stroke-linejoin:round" d="M 38.5,54.7 38.1,61.1" />
      <path style="fill:none;stroke-width:0.6;stroke-linecap:round;stroke-linejoin:round" d="M 29.1,70.4 37.1,69.9" />
      <path style="fill:none;stroke-width:0.6;stroke-linecap:round;stroke-linejoin:round" d="m 29.2,70.2 4.4,-0.9" />
      <path style="fill:none;stroke-width:0.6;stroke-linecap:round;stroke-linejoin:round" d="M 29.1,70.4 28.2,66.1" />
      <path style="fill:none;stroke-width:0.6;stroke-linecap:round;stroke-linejoin:round" d="M 29.2,70.3 26.2,63.6" />
      <path style="fill:none;stroke-width:0.6;stroke-linecap:round;stroke-linejoin:round" d="m 31,55.3 3.5,0.5 5.3,3.2 2.2,2.7 -3.6,-0.4 -5.2,-3.2 z" />
      <path style="fill:none;stroke-width:0.6;stroke-linecap:round;stroke-linejoin:round" d="m 26.1,63.6 3.8,0.4 5.2,3.1 2,2.8 -3.5,-0.6 -5.4,-3 -2.1,-2.6" />
   </g>
</svg>
