<?xml version="1.0" encoding="UTF-8" standalone="no"?>
<!-- Created with Inkscape (http://www.inkscape.org/) -->

<svg viewBox="0 0 20 20">
   <path style="display:inline;fill:none;stroke-width:0.6;stroke-linejoin:miter;stroke-miterlimit:4" d="M 5.1,0.3 C 5.1,2.3 5,3.5 4.5,4.2 3.9,3.9 3.3,3.2 2.2,2.2 c 1,1 1.6,1.7 1.9,2.3 0,0 0,0 0,0 0,0 0,0 0,0 0,0 0,0 0,0 0,0 0,0 0,0 0,0 0,0 0,0 0,0 0,0 0,0 0,0 0,0 0,0 0,0 0,0 0,0 0,0 0,0 0,0 0,0 0,0 0,0 -0.7,0.5 -1.9,0.6 -3.9,0.6 v 0 c 2,0 3.3,0 3.9,0.5 0,0 0,0 0,0 0.1,0 0.1,0.1 0.2,0.2 0,0 0,0 0,0 0,0 0,0 0,0 0,0 0,0 0.1,0 0,0 0,0 0,0 H 4.6 C 5.1,6.7 5.1,8 5.1,10.5 5.2,8 5.2,6.7 5.7,6 6.3,6.2 6.9,6.9 8,8 6.9,6.9 6.3,6.2 6,5.6 c 0,0 0,0 0,0 0,0 0,0 0,0 0,0 0,0 0,0 0,0 0,0 0,0 0,0 0,0 0,0 0,0 0,0 0,0 0,0 0,0 0,0 0,0 0,0 0,0 l 0,0 C 6.7,5.1 8.1,5.1 10.6,5.1 8,5.1 6.6,5 5.9,4.4 c 0,0 0,0 0,0 C 6.3,3.9 7,3.3 8,2.2 7,3.2 6.3,3.9 5.7,4.2 c 0,0 0,0 0,0 0,0 0,0 0,0 0,0 0,0 0,0 C 5.9,4.4 5.8,4.3 5.8,4.3 5.8,4.3 5.8,4.3 5.8,4.3 5.7,4.2 5.7,4.2 5.7,4.2 5.2,3.5 5.1,2.4 5.1347928,0 Z M 4.6,5.9 c 0,0 0,0 0,0 0,0 0,0 0,0 0,0 0,0 0,0 0,0 0,0 0,0 0,0 0,0 0,0 0,0 0,0 0,0 C 4,6.1 3.3,6.9 2.3,8 3.3,6.9 4,6.2 4.6,5.9 Z M 5.8,5.8 c 0,0 0,0 0,0 0,0 0,0 0,0 z" />
   <path style="stroke-width:1;stroke-linecap:round" d="M 1.2,19.7 12.3,0.4" />
   <path style="stroke-width:1;stroke-linecap:round" d="M 2.9,19.7 14,0.4" />
   <path style="stroke-width:1;stroke-linecap:round" d="M 4.8,19.7 15.9,0.4" />
   <path style="stroke-width:1;stroke-linecap:round" d="M 8.4,19.7 19.6,0.4" />
</svg>