<?xml version="1.0" encoding="UTF-8" standalone="no"?>
<!-- Created with Inkscape (http://www.inkscape.org/) -->

<svg viewBox="0 0 20 20">
    <g transform="translate(-66.1,-51.9)">
      <path style="fill:none;stroke-linecap:round" d="m 76.5,62 c 0,0 1.3,-0.6 2.8,0.2 1.5,0.8 1.7,2.2 1.7,2.2 m 2.4,0.3 a 5.5,5.5 0 0 1 -5.5,5.5 5.5,5.5 0 0 1 -5.5,-5.5 5.5,5.5 0 0 1 5.5,-5.5 5.5,5.5 0 0 1 5.5,5.5 z" />
      <path style="fill:none;stroke-linecap:round" d="m 71.5,59.5 c 0,0 1,-0.4 2.1,0.1 1.1,0.6 1.3,1.6 1.3,1.6 m 1.8,0.2 a 4.1,4.1 0 0 1 -4.1,4.1 4.1,4.1 0 0 1 -4.1,-4.1 4.1,4.1 0 0 1 4.1,-4.1 4.1,4.1 0 0 1 4.1,4.1 z" />
      <path style="fill:none;stroke-linecap:round" d="m 79.6,54.5 c 0,0 0.6,-0.3 1.3,0.1 0.7,0.4 0.8,1.0 0.8,1.0 m 1.2,0.2 a 2.6,2.6 0 0 1 -2.6,2.6 2.6,2.6 0 0 1 -2.6,-2.6 2.6,2.6 0 0 1 2.6,-2.6 2.6,2.6 0 0 1 2.6,2.6 z" />
    </g>
</svg>
