<?xml version="1.0" encoding="UTF-8" standalone="no"?>
<!-- Created with Inkscape (http://www.inkscape.org/) -->

<svg
   width="9.8984251mm"
   height="10.000001mm"
   viewBox="0 0 9.8984251 10.000001"
   version="1.1"
   id="svg1"
   xmlns="http://www.w3.org/2000/svg"
   xmlns:svg="http://www.w3.org/2000/svg">
  <defs
     id="defs1" />
  <g
     id="layer1">
    <path
       id="path1-6-6-84"
       style="font-variation-settings:normal;display:inline;fill:#c99f2e;fill-opacity:1;stroke:#a47c11;stroke-width:0.59173;stroke-linecap:round;stroke-linejoin:round;stroke-miterlimit:4;stroke-dasharray:none;stroke-dashoffset:0;stroke-opacity:1;stop-color:#000000"
       d="M 4.9343775,0.2923897 C 4.9255361,2.4182647 4.8655126,3.5675446 4.3743224,4.1960441 3.897465,3.9496322 3.3346691,3.3929522 2.4624134,2.5153655 3.3237647,3.3910472 3.8607829,3.9727453 4.0932241,4.4672363 3.4488511,4.9351985 2.3103409,4.9576908 0.29281613,4.9849701 2.3655801,4.9753665 3.5153584,4.982693 4.1517542,5.4111693 3.9571152,5.9399136 3.3893484,6.5332133 2.4701545,7.4847876 3.4002331,6.5387993 3.9829616,5.9555309 4.4826691,5.7322075 4.9383463,6.3707097 4.9364504,7.5459877 4.9197892,9.7069546 4.9604597,7.5552289 4.9738201,6.3827756 5.4088575,5.746013 5.905726,5.9821311 6.4865781,6.5720527 7.4087387,7.5159846 6.4886018,6.5526048 5.9112469,5.9556349 5.6807903,5.4549184 6.2955935,4.9821019 7.4402338,4.9936372 9.6051156,5.0143751 7.482319,4.9641986 6.3262536,4.9432091 5.6949366,4.4814022 5.9340578,3.9969257 6.508269,3.4289768 7.4242996,2.5231653 6.5005868,3.4114476 5.9164536,3.977459 5.423269,4.2150514 4.9511369,3.591728 4.9361851,2.4446015 4.9343775,0.2923897 Z" />
  </g>
</svg>
