<?xml version="1.0" encoding="UTF-8" standalone="no"?>
<!-- Created with Inkscape (http://www.inkscape.org/) -->

<svg
   width="54.111813mm"
   height="54.276276mm"
   viewBox="0 0 54.111813 54.276276"
   version="1.1"
   id="svg1"
   xmlns="http://www.w3.org/2000/svg"
   xmlns:svg="http://www.w3.org/2000/svg">
  <defs
     id="defs1" />
  <g
     id="layer1"
     transform="translate(-217.71167,-73.11434)">
    <path
       id="path1-6-6"
       style="font-variation-settings:normal;display:inline;vector-effect:none;fill:#c2b8f4;fill-opacity:1;stroke:#4425dd;stroke-width:0.75;stroke-linecap:butt;stroke-linejoin:miter;stroke-miterlimit:4;stroke-dasharray:none;stroke-dashoffset:0;stroke-opacity:1;-inkscape-stroke:none;stop-color:#000000"
       d="m 244.68096,73.115972 c -0.0534,12.253975 -0.39999,18.878667 -3.25355,22.501466 -2.7702,-1.420365 -6.03966,-4.629191 -11.10682,-9.687778 5.00383,5.047605 8.12355,8.40064 9.47384,11.250988 -3.74334,2.69743 -10.35729,2.827082 -22.07772,2.984322 12.04132,-0.0552 18.72074,-0.0134 22.41775,2.4567 -1.13071,3.04779 -4.42907,6.46769 -9.76891,11.95276 5.40308,-5.45287 8.78833,-8.81495 11.69128,-10.10223 2.6472,3.68046 2.6362,10.455 2.53938,22.91126 0.23645,-12.40299 0.31393,-19.16125 2.84117,-22.83168 2.88644,1.36103 6.2608,4.76146 11.61789,10.20248 -5.34535,-5.55312 -8.69937,-8.99418 -10.03814,-11.88041 3.57158,-2.72541 10.22113,-2.65892 22.79757,-2.53938 -12.33198,-0.28921 -19.0479,-0.410222 -22.71541,-3.072172 1.38915,-2.79262 4.72492,-6.066397 10.04642,-11.28768 -5.36617,5.120239 -8.75959,8.382849 -11.62462,9.75238 -2.74279,-3.592958 -2.82963,-10.205234 -2.84013,-22.611026 z" />
  </g>
</svg>
