<?xml version="1.0" encoding="UTF-8" standalone="no"?>
<!-- Created with Inkscape (http://www.inkscape.org/) -->

<svg
   width="9.9999924mm"
   height="10.000006mm"
   viewBox="0 0 9.9999924 10.000006"
   version="1.1"
   id="svg1"
   xmlns="http://www.w3.org/2000/svg"
   xmlns:svg="http://www.w3.org/2000/svg">
  <defs
     id="defs1" />
  <g
     id="layer1">
    <path
       id="path1-6-6-8-4-4-7-4-2"
       style="font-variation-settings:normal;display:inline;fill:#acacac;fill-opacity:1;stroke:#7b7b7b;stroke-width:0.698241;stroke-linecap:round;stroke-linejoin:round;stroke-miterlimit:4;stroke-dasharray:none;stroke-dashoffset:0;stroke-opacity:1;stop-color:#000000"
       d="M 4.9851387,0.3450107 C 4.9771466,2.2752266 4.9252978,3.3904232 4.5369916,4.0413334 3.8264637,3.8291573 3.0292715,3.0529001 1.6622225,1.6923177 3.0038566,3.0415649 3.7561432,3.8617821 3.9579537,4.5871605 3.2879459,4.9394061 2.1810797,4.9604548 0.34552369,4.9850033 2.1952857,4.9765376 3.3095845,4.9812187 3.9802418,5.2836849 3.8138762,6.0414929 3.0316791,6.8521527 1.6725323,8.2440053 3.074227,6.8337105 3.8841167,6.0349544 4.6112082,5.8427473 4.9892446,6.4977062 4.9862176,7.6454699 4.9705531,9.6541926 5.0085155,7.6664548 5.0229014,6.5241649 5.3789894,5.8688694 6.0901666,6.1022626 6.8933429,6.9066638 8.2547076,8.2851366 6.8957405,6.8776574 6.0994175,6.0636133 5.8700442,5.3579121 6.5130688,4.9842145 7.6428623,4.9950237 9.6539149,5.0140814 7.654131,4.9673209 6.5121696,4.9467344 5.8590251,4.5623391 6.0724842,3.8580383 6.8732728,3.0739517 8.2752173,1.702601 6.8807954,3.0290577 6.0669796,3.8097937 5.3524257,4.0338866 4.9998341,3.3831427 4.986777,2.2720225 4.9851387,0.3450107 Z" />
  </g>
</svg>
