<?xml version="1.0" encoding="UTF-8" standalone="no"?>
<!-- Created with Inkscape (http://www.inkscape.org/) -->

<svg
   width="10mm"
   height="10mm"
   viewBox="0 0 10 10"
   version="1.1"
   id="svg1"
   xmlns="http://www.w3.org/2000/svg"
   xmlns:svg="http://www.w3.org/2000/svg">
  <defs
     id="defs1" />
  <g
     id="layer1">
    <path
       id="path6-6-5-94-9"
       style="font-variation-settings:normal;fill:#c96a2e;fill-opacity:1;stroke:#85461b;stroke-width:0.498184;stroke-linecap:round;stroke-linejoin:round;stroke-miterlimit:4;stroke-dasharray:none;stroke-dashoffset:0;stroke-opacity:1"
       d="M 7.878784,8.3593986 8.3594016,7.878784 m 0,0.4806146 L 7.878784,7.878784 M 1.6405984,2.121215 2.121216,1.6406004 m 0,0.4806146 -0.4806176,-0.4806146 m 0,6.2381836 0.4806176,0.4806146 m -0.4806176,0 L 2.121216,7.878784 M 7.878784,1.6406004 8.3594016,2.121215 m -0.4806176,0 0.4806176,-0.4806146 M 0.58893275,4.6601541 V 5.3398459 M 0.24909181,5 H 0.92878365 M 9.4110672,4.6601541 V 5.3398459 M 9.0712163,5 H 9.7509082 M 4.6601591,9.4110613 H 5.3398409 M 5,9.7509072 V 9.0712153 M 4.6601591,0.58893773 H 5.3398409 M 5,0.92878365 V 0.24909181 M 4.9899367,1.8665854 C 4.9839585,3.1658075 4.9497831,3.9164436 4.6892131,4.3545672 4.2124215,4.2117539 3.6774719,3.689257 2.7601266,2.773455 3.6604141,3.6816278 4.1652336,4.2337139 4.3006598,4.7219617 3.8510491,4.9590563 3.1082971,4.9732246 1.8765581,4.9897504 3.1178324,4.9840711 3.8655761,4.9872595 4.3156153,5.1907894 4.2039723,5.7008696 3.6790861,6.2465212 2.7670414,7.1833704 3.7076419,6.2341064 4.2511105,5.6964657 4.7390215,5.5670944 4.9926966,6.007943 4.990664,6.7804983 4.9801524,8.1325647 5.0056594,6.7946248 5.0152245,6.0257521 5.2542331,5.5846753 5.7314631,5.7417725 6.270428,6.2832104 7.1839573,7.2110575 6.2720322,6.2636866 5.7376705,5.7157583 5.5837516,5.2407512 6.0152484,4.9892183 6.7733842,4.9964948 8.1228939,5.00932 6.7809467,4.9778448 6.0146506,4.9639953 5.5763586,4.7052546 5.7195964,4.2311921 6.2569571,3.7034273 7.1977271,2.7803767 6.2620087,3.6732085 5.7158998,4.1987185 5.2364081,4.3495565 4.9998007,3.9115435 4.9910427,3.1636503 4.9899367,1.8665854 Z" />
  </g>
</svg>
