<?xml version="1.0" encoding="UTF-8" standalone="no"?>
<!-- Created with Inkscape (http://www.inkscape.org/) -->

<svg
   width="198.06599mm"
   height="74.275063mm"
   viewBox="0 0 198.06599 74.275063"
   version="1.1"
   id="svg1"
   xmlns:xlink="http://www.w3.org/1999/xlink"
   xmlns="http://www.w3.org/2000/svg"
   xmlns:svg="http://www.w3.org/2000/svg">
  <defs
     id="defs1">
    <linearGradient
       xlink:href="#linearGradient74"
       id="linearGradient76"
       gradientUnits="userSpaceOnUse"
       gradientTransform="matrix(-2.2507553,0,0,2.2507553,198.066,-510.13191)"
       x1="0"
       y1="243.14925"
       x2="87.999794"
       y2="243.14925" />
    <linearGradient
       id="linearGradient74">
      <stop
         style="stop-color:#54cdf3;stop-opacity:0;"
         offset="0.1509769"
         id="stop69" />
      <stop
         style="stop-color:#54cdf3;stop-opacity:1;"
         offset="0.3197158"
         id="stop72" />
      <stop
         style="stop-color:#54cdf3;stop-opacity:1;"
         offset="0.61989343"
         id="stop73" />
      <stop
         style="stop-color:#54cdf3;stop-opacity:0;"
         offset="0.8525755"
         id="stop74" />
    </linearGradient>
  </defs>
  <g
     id="layer1">
    <path
       id="rect10-8-4-3-8-5-2"
       style="display:inline;opacity:0.616;fill:url(#linearGradient76);fill-opacity:1;stroke-width:5.94578"
       d="m 185.6871,0 a 12.379154,12.379154 0 0 1 12.3789,12.379 v 49.51706 a 12.379154,12.379154 0 0 0 -12.3789,-12.37897 12.379154,12.379154 0 0 0 -12.3789,12.37897 12.379154,12.379154 0 0 1 -12.3792,12.379 12.379154,12.379154 0 0 1 -12.3789,-12.379 V 12.379 A 12.379154,12.379154 0 0 0 160.929,24.75797 12.379154,12.379154 0 0 0 173.3082,12.379 12.379154,12.379154 0 0 1 185.6871,0 Z M 136.17,0 a 12.379154,12.379154 0 0 1 12.3789,12.379 V 61.89606 A 12.379154,12.379154 0 0 0 136.17,49.51709 12.379154,12.379154 0 0 0 123.7909,61.89606 12.379154,12.379154 0 0 1 111.4119,74.27506 12.379154,12.379154 0 0 1 99.033,61.89606 12.379154,12.379154 0 0 0 86.6541,49.51709 12.379154,12.379154 0 0 0 74.2752,61.89606 12.379154,12.379154 0 0 1 61.896,74.27506 12.379154,12.379154 0 0 1 49.5171,61.89606 V 12.379 A 12.379154,12.379154 0 0 0 61.896,24.75797 12.379154,12.379154 0 0 0 74.2752,12.379 12.379154,12.379154 0 0 1 86.6541,0 12.379154,12.379154 0 0 1 99.033,12.379 12.379154,12.379154 0 0 0 111.4119,24.75797 12.379154,12.379154 0 0 0 123.7909,12.379 12.379154,12.379154 0 0 1 136.17,0 Z M 37.137,0 A 12.379154,12.379154 0 0 1 49.5159,12.379 V 61.89606 A 12.379154,12.379154 0 0 0 37.137,49.51709 12.379154,12.379154 0 0 0 24.7579,61.89606 12.379154,12.379154 0 0 1 12.3789,74.27506 12.379154,12.379154 0 0 1 0,61.89606 V 12.379 A 12.379154,12.379154 0 0 0 12.3789,24.75797 12.379154,12.379154 0 0 0 24.7579,12.379 12.379154,12.379154 0 0 1 37.137,0 Z" />
  </g>
</svg>
