<?xml version="1.0" encoding="UTF-8" standalone="no"?>
<!-- Created with Inkscape (http://www.inkscape.org/) -->

<svg
   width="198.06599mm"
   height="74.275055mm"
   viewBox="0 0 198.06599 74.275055"
   version="1.1"
   id="svg1"
   xmlns:xlink="http://www.w3.org/1999/xlink"
   xmlns="http://www.w3.org/2000/svg"
   xmlns:svg="http://www.w3.org/2000/svg">
  <defs
     id="defs1">
    <linearGradient
       xlink:href="#linearGradient31"
       id="linearGradient80"
       gradientUnits="userSpaceOnUse"
       gradientTransform="matrix(-2.2507553,0,0,2.2507553,198.066,-510.13192)"
       x1="0"
       y1="243.14925"
       x2="87.999794"
       y2="243.14925" />
    <linearGradient
       id="linearGradient31">
      <stop
         style="stop-color:#32b032;stop-opacity:0;"
         offset="0.1474245"
         id="stop28" />
      <stop
         style="stop-color:#32b032;stop-opacity:1;"
         offset="0.38010657"
         id="stop29" />
      <stop
         style="stop-color:#32b032;stop-opacity:1;"
         offset="0.6802842"
         id="stop30" />
      <stop
         style="stop-color:#32b032;stop-opacity:0;"
         offset="0.8490231"
         id="stop31" />
    </linearGradient>
  </defs>
  <g
     id="layer1">
    <path
       id="rect10-8-4-3-8-1-1"
       style="display:inline;fill:url(#linearGradient80);fill-opacity:1;stroke-width:5.94578"
       d="m 185.6871,0 a 12.379154,12.379154 0 0 1 12.3789,12.379 v 49.51705 a 12.379154,12.379154 0 0 0 -12.3789,-12.37897 12.379154,12.379154 0 0 0 -12.3788,12.37897 12.379154,12.379154 0 0 1 -12.3793,12.379 12.379154,12.379154 0 0 1 -12.3788,-12.379 V 12.379 A 12.379154,12.379154 0 0 0 160.929,24.75796 12.379154,12.379154 0 0 0 173.3083,12.379 12.379154,12.379154 0 0 1 185.6871,0 Z M 136.17,0 a 12.379154,12.379154 0 0 1 12.3789,12.379 V 61.89605 A 12.379154,12.379154 0 0 0 136.17,49.51708 12.379154,12.379154 0 0 0 123.7909,61.89605 12.379154,12.379154 0 0 1 111.4119,74.27505 12.379154,12.379154 0 0 1 99.0331,61.89605 12.379154,12.379154 0 0 0 86.6542,49.51708 12.379154,12.379154 0 0 0 74.2753,61.89605 12.379154,12.379154 0 0 1 61.8961,74.27505 12.379154,12.379154 0 0 1 49.5171,61.89605 V 12.379 A 12.379154,12.379154 0 0 0 61.8961,24.75796 12.379154,12.379154 0 0 0 74.2753,12.379 12.379154,12.379154 0 0 1 86.6542,0 12.379154,12.379154 0 0 1 99.0331,12.379 12.379154,12.379154 0 0 0 111.4119,24.75796 12.379154,12.379154 0 0 0 123.7909,12.379 12.379154,12.379154 0 0 1 136.17,0 Z M 37.137,0 A 12.379154,12.379154 0 0 1 49.5159,12.379 V 61.89605 A 12.379154,12.379154 0 0 0 37.137,49.51708 12.379154,12.379154 0 0 0 24.7579,61.89605 12.379154,12.379154 0 0 1 12.3789,74.27505 12.379154,12.379154 0 0 1 0,61.89605 V 12.379 A 12.379154,12.379154 0 0 0 12.3789,24.75796 12.379154,12.379154 0 0 0 24.7579,12.379 12.379154,12.379154 0 0 1 37.137,0 Z" />
  </g>
</svg>
